<mxfile host="app.diagrams.net" modified="2024-02-01T07:36:36.091Z" agent="Mozilla/5.0 (Windows NT 10.0; Win64; x64) AppleWebKit/537.36 (KHTML, like Gecko) Chrome/113.0.0.0 Safari/537.36" version="22.1.21" etag="AN_W2aDGj9JmIq6SvrWu" type="github">
  <diagram name="第 1 页" id="MGjyUE6QwlqvX1HLhKno">
    <mxGraphModel>
      <root>
        <mxCell id="0" />
        <mxCell id="1" parent="0" />
      </root>
    </mxGraphModel>
  </diagram>
</mxfile>
